<svg width="127" height="37" viewBox="0 0 127 37" fill="none" xmlns="http://www.w3.org/2000/svg">
<path d="M45.2 24H48.56V17.448H49.184C49.4 17.952 49.592 18.312 49.832 18.672L53.408 24H57.368L52.664 17.136C55.208 16.584 56.696 14.952 56.696 12.288C56.696 9 54.392 7.152 50.624 7.176L45.2 7.2V24ZM48.56 14.424V10.224H50.432C52.256 10.224 53.288 10.968 53.288 12.312C53.288 13.68 52.256 14.424 50.432 14.424H48.56ZM58.1788 24H61.4188V17.16C61.4188 15 62.6428 14.064 64.0108 14.064C65.6188 14.064 66.6988 15 66.6988 17.16V24H69.9388V16.368C69.9388 13.224 67.8748 11.232 65.1868 11.232C63.3148 11.232 62.0908 11.904 61.4188 13.248V6.48H58.1788V24ZM72.4117 29.016C75.3397 29.016 76.8997 27.312 77.9557 24.792L83.4757 11.52H79.6357L77.2117 18.648C76.9957 19.248 76.8037 19.992 76.6837 20.64C76.5637 19.992 76.3717 19.248 76.1557 18.648L73.7317 11.52H69.8197L74.7637 23.424L74.5957 23.952C74.2357 25.056 73.4437 25.848 72.1957 25.848C71.6677 25.848 71.2117 25.8 70.7317 25.68L70.2517 28.776C70.8997 28.968 71.7637 29.016 72.4117 29.016ZM89.1568 24H90.9328V21.12H89.5888C88.9648 21.12 88.5808 20.76 88.5808 19.968V14.28H91.2208V11.52H88.5808V8.664L85.3408 9V11.52H83.5888V14.28H85.3408V20.136C85.3408 22.848 86.6848 24 89.1568 24ZM92.3038 24H95.5438V17.16C95.5438 15 96.7678 14.064 98.1358 14.064C99.7438 14.064 100.824 15 100.824 17.16V24H104.064V16.368C104.064 13.224 102 11.232 99.3118 11.232C97.4398 11.232 96.2158 11.904 95.5438 13.248V6.48H92.3038V24ZM105.874 24H109.114V17.16C109.114 15 110.338 14.064 111.706 14.064C113.314 14.064 114.394 15 114.394 17.16V24H117.634V17.16C117.634 14.76 118.666 14.064 120.178 14.064C121.642 14.064 122.674 15 122.674 17.16V24H125.914V16.368C125.914 13.224 123.85 11.232 121.162 11.232C118.978 11.232 117.778 12.072 116.938 13.584C116.122 12.072 114.634 11.232 112.882 11.232C110.962 11.232 109.714 11.952 109.066 13.344V11.52H105.874V24Z" fill="#121212"/>
<g filter="url(#filter0_d_2_161)">
<path fill-rule="evenodd" clip-rule="evenodd" d="M18.1497 15.7262C17.7657 23.0669 11.5919 28.9146 4 29V1C11.5919 1.08547 17.7657 6.9331 18.1497 14.2738C18.5287 7.02987 24.5459 1.2399 32 1.0064V28.9937C24.5459 28.7602 18.5287 22.9702 18.1497 15.7262Z" fill="#FF6428"/>
</g>
<defs>
<filter id="filter0_d_2_161" x="0" y="1" width="36" height="36" filterUnits="userSpaceOnUse" color-interpolation-filters="sRGB">
<feFlood flood-opacity="0" result="BackgroundImageFix"/>
<feColorMatrix in="SourceAlpha" type="matrix" values="0 0 0 0 0 0 0 0 0 0 0 0 0 0 0 0 0 0 127 0" result="hardAlpha"/>
<feOffset dy="4"/>
<feGaussianBlur stdDeviation="2"/>
<feComposite in2="hardAlpha" operator="out"/>
<feColorMatrix type="matrix" values="0 0 0 0 0 0 0 0 0 0 0 0 0 0 0 0 0 0 0.25 0"/>
<feBlend mode="normal" in2="BackgroundImageFix" result="effect1_dropShadow_2_161"/>
<feBlend mode="normal" in="SourceGraphic" in2="effect1_dropShadow_2_161" result="shape"/>
</filter>
</defs>
</svg>
